<svg width="46" height="44" viewBox="0 0 46 44" fill="none" xmlns="http://www.w3.org/2000/svg">
<path d="M17.02 5.86853H14.0547V7.31392H17.02V5.86853Z" fill="black"/>
<path d="M17.02 8.75928H14.0547V10.2047H17.02V8.75928Z" fill="black"/>
<path d="M17.02 11.65H14.0547V13.0954H17.02V11.65Z" fill="black"/>
<path d="M27.3981 6.59122H25.9155C25.9151 6.97442 25.7587 7.3418 25.4808 7.61276C25.2029 7.88373 24.826 8.03615 24.4329 8.03661V9.48199C25.2191 9.48112 25.9728 9.17628 26.5287 8.63435C27.0846 8.09242 27.3973 7.35764 27.3981 6.59122Z" fill="black"/>
<path d="M31.1047 10.2047V8.7593C30.7117 8.75884 30.3348 8.60642 30.0569 8.33544C29.779 8.06449 29.6226 7.69711 29.6221 7.3139H28.1396C28.1404 8.08032 28.4531 8.81511 29.009 9.35704C29.5648 9.89897 30.3186 10.2038 31.1047 10.2047Z" fill="black"/>
<path d="M38.8874 41.6628C37.636 41.8846 36.3595 41.9401 35.0927 41.8281L22.2034 40.6857C21.9962 40.6673 21.8044 40.5718 21.6676 40.4189C21.5308 40.2661 21.4596 40.0677 21.4691 39.8651C21.4785 39.6626 21.5676 39.4712 21.7179 39.3311C21.8683 39.1908 22.0683 39.1126 22.2762 39.1124H32.2165C32.708 39.1116 33.1793 38.9208 33.5267 38.5818C33.8742 38.2427 34.0695 37.7833 34.0698 37.3039V37.287C34.0689 36.9073 33.9425 36.538 33.7094 36.2338L32.012 34.0284C31.9045 33.8881 31.8463 33.7177 31.8458 33.5426V33.4185C31.8458 33.2583 31.8946 33.1016 31.986 32.9684C32.0772 32.8351 32.2071 32.7312 32.359 32.6699C32.5108 32.6085 32.6779 32.5926 32.8391 32.6238C33.0005 32.655 33.1485 32.7322 33.2648 32.8456L36.5107 36.01C36.5796 36.077 36.6613 36.1303 36.7512 36.1666C36.8412 36.203 36.9375 36.2216 37.035 36.2216H45.1892V34.7762H37.3419L34.3133 31.8234C34.2371 31.7493 34.1557 31.6803 34.0698 31.617V15.2635C34.0698 15.0719 33.9916 14.8881 33.8527 14.7526C33.7137 14.617 33.525 14.5408 33.3285 14.5408H32.5871V12.3728H33.6991C34.3872 12.3728 35.0471 12.1064 35.5337 11.6319C36.0203 11.1576 36.2937 10.5142 36.2937 9.84337C36.2937 9.17252 36.0203 8.52916 35.5337 8.05479C35.0471 7.58044 34.3872 7.31394 33.6991 7.31394H33.6225C33.9937 6.88039 34.1844 6.32691 34.1574 5.76283C34.1302 5.19876 33.8871 4.66512 33.4759 4.26735C33.0648 3.86956 32.5155 3.63656 31.9368 3.61439C31.3579 3.59221 30.7917 3.78247 30.3498 4.14756C30.2796 3.43172 29.9384 2.76707 29.3927 2.28339C28.8468 1.79968 28.1357 1.53167 27.3981 1.53167C26.6604 1.53167 25.9493 1.79968 25.4036 2.28339C24.8578 2.76707 24.5165 3.43172 24.4464 4.14756C24.0045 3.78247 23.4382 3.59221 22.8594 3.61439C22.2807 3.63656 21.7315 3.86956 21.3203 4.26735C20.9092 4.66512 20.6659 5.19876 20.6389 5.76283C20.6117 6.32691 20.8026 6.88039 21.1737 7.31394H21.097C20.7124 7.3136 20.3324 7.39716 19.9851 7.55848V4.42318C19.9851 3.27316 19.5166 2.17024 18.6824 1.35706C17.8483 0.543872 16.717 0.0870209 15.5374 0.0870209C14.3578 0.0870209 13.2264 0.543872 12.3923 1.35706C11.5582 2.17024 11.0896 3.27316 11.0896 4.42318V14.5408H10.3483C10.1517 14.5408 9.96312 14.617 9.8241 14.7526C9.68507 14.8881 9.60698 15.0719 9.60698 15.2635V18.4414L5.62631 21.7678H0.711426V23.2131H5.9005C6.07744 23.2131 6.24854 23.1515 6.38289 23.0392L10.6794 19.4488C11.1212 19.08 11.6836 18.8772 12.2652 18.877C12.3259 18.877 12.3852 18.8946 12.4357 18.9274C12.4862 18.9604 12.5255 19.0072 12.5488 19.0618C12.572 19.1165 12.5781 19.1766 12.5662 19.2347C12.5544 19.2928 12.5251 19.3461 12.4822 19.388L9.82409 21.9795C9.72041 22.0805 9.6498 22.2093 9.6212 22.3495C9.59259 22.4897 9.60727 22.635 9.66338 22.767C9.71949 22.8991 9.81451 23.012 9.93642 23.0914C10.0583 23.1708 10.2017 23.2131 10.3483 23.2131H18.1319C18.2302 23.2131 18.3245 23.2512 18.3939 23.3191C18.4635 23.3868 18.5026 23.4787 18.5026 23.5745C18.5026 23.6704 18.4635 23.7623 18.3939 23.83C18.3245 23.8978 18.2302 23.9358 18.1319 23.9358H12.5722C12.3756 23.9358 12.187 24.012 12.048 24.1476C11.909 24.2831 11.8309 24.4669 11.8309 24.6585C11.8309 24.8503 11.909 25.0341 12.048 25.1696C12.187 25.3051 12.3756 25.3812 12.5722 25.3812H20.3557C20.4541 25.3812 20.5484 25.4193 20.6178 25.487C20.6874 25.5549 20.7264 25.6468 20.7264 25.7426C20.7264 25.8384 20.6874 25.9303 20.6178 25.9981C20.5484 26.0658 20.4541 26.1039 20.3557 26.1039H12.5722C12.3756 26.1039 12.187 26.1801 12.048 26.3155C11.909 26.4511 11.8309 26.635 11.8309 26.8266C11.8309 27.0183 11.909 27.2022 12.048 27.3377C12.187 27.4731 12.3756 27.5493 12.5722 27.5493H18.8732C18.9715 27.5493 19.0658 27.5874 19.1352 27.6551C19.2048 27.723 19.2438 27.8149 19.2438 27.9107C19.2438 28.0065 19.2048 28.0984 19.1352 28.1662C19.0658 28.2339 18.9715 28.272 18.8732 28.272H12.5722C12.3756 28.272 12.187 28.3481 12.048 28.4837C11.909 28.6192 11.8309 28.803 11.8309 28.9947C11.8309 29.1864 11.909 29.3701 12.048 29.5057C12.187 29.6412 12.3756 29.7174 12.5722 29.7174H16.2324C16.2437 29.718 16.2544 29.7226 16.2626 29.7304C16.2706 29.7383 16.2756 29.7487 16.2763 29.7597C16.277 29.7708 16.2734 29.7818 16.2663 29.7905C16.2593 29.7992 16.2491 29.8051 16.2379 29.807L11.1476 30.4273L6.10436 29.0226C6.03806 29.0041 5.96944 28.9947 5.9005 28.9947H0.711426V30.4401H5.79672L9.60698 31.5015V38.3897H9.60874C9.60803 38.4846 9.62667 38.5788 9.66357 38.6666C9.70047 38.7546 9.75488 38.8345 9.82367 38.9016C9.89247 38.9688 9.97425 39.022 10.0643 39.0583C10.1544 39.0945 10.2509 39.1128 10.3483 39.1124H20.1334C20.0086 39.4343 19.9619 39.7801 19.9969 40.1226C20.0318 40.4651 20.1475 40.7951 20.3349 41.0868C20.5225 41.3785 20.7764 41.6239 21.0773 41.8041C21.3781 41.9842 21.7176 42.0941 22.0693 42.1251L34.9584 43.2678C35.4275 43.3096 35.8972 43.3304 36.3677 43.3303C37.3017 43.3303 38.2337 43.2484 39.1526 43.0855L45.3217 41.9919L45.0566 40.5699L38.8874 41.6628ZM18.5026 11.6501C18.5027 11.4585 18.5809 11.2747 18.7199 11.1393C18.8588 11.0038 19.0473 10.9276 19.2438 10.9274H20.7264C21.5126 10.9283 22.2662 11.2331 22.8221 11.775C23.3781 12.317 23.6908 13.0518 23.6916 13.8181C23.6913 14.0097 23.6131 14.1935 23.4743 14.3289C23.3352 14.4645 23.1468 14.5407 22.9503 14.5408H21.4677C20.6816 14.54 19.9278 14.2351 19.372 13.6932C18.8161 13.1514 18.5034 12.4165 18.5026 11.6501ZM21.097 8.75933H22.9503C23.0969 8.75933 23.2403 8.71695 23.3621 8.63755C23.4841 8.55813 23.579 8.44526 23.6352 8.3132C23.6913 8.18114 23.706 8.03583 23.6773 7.89564C23.6488 7.75545 23.5782 7.62667 23.4745 7.5256L22.3626 6.44156C22.2854 6.36632 22.2241 6.27698 22.1824 6.17867C22.1407 6.08036 22.119 5.97498 22.119 5.86856C22.119 5.76214 22.1407 5.65676 22.1824 5.55845C22.2241 5.46014 22.2854 5.3708 22.3626 5.29556C22.4398 5.2203 22.5314 5.16062 22.6322 5.1199C22.7331 5.07917 22.8412 5.05821 22.9503 5.05821C23.0595 5.05821 23.1675 5.07917 23.2684 5.1199C23.3692 5.16062 23.4608 5.2203 23.538 5.29556L24.65 6.37959C24.7537 6.48067 24.8858 6.54951 25.0295 6.57739C25.1734 6.60528 25.3224 6.59097 25.4578 6.53626C25.5934 6.48156 25.7091 6.38893 25.7906 6.27007C25.872 6.15122 25.9155 6.01149 25.9155 5.86856V4.42318C25.9155 4.03983 26.0717 3.6722 26.3497 3.40114C26.6277 3.13007 27.0049 2.97779 27.3981 2.97779C27.7912 2.97779 28.1684 3.13007 28.4465 3.40114C28.7245 3.6722 28.8806 4.03983 28.8806 4.42318V5.86856C28.8806 6.01149 28.9241 6.15122 29.0056 6.27007C29.087 6.38893 29.2029 6.48156 29.3383 6.53626C29.4737 6.59097 29.6228 6.60528 29.7666 6.57739C29.9104 6.54951 30.0425 6.48067 30.1462 6.37959L31.2581 5.29556C31.3353 5.2203 31.427 5.16062 31.5277 5.1199C31.6286 5.07917 31.7368 5.05821 31.8458 5.05821C31.9551 5.05821 32.063 5.07917 32.164 5.1199C32.2647 5.16062 32.3564 5.2203 32.4336 5.29556C32.5108 5.3708 32.572 5.46014 32.6138 5.55845C32.6556 5.65676 32.6771 5.76214 32.6771 5.86856C32.6771 5.97498 32.6556 6.08036 32.6138 6.17867C32.572 6.27698 32.5108 6.36632 32.4336 6.44156L31.3216 7.5256C31.2179 7.62667 31.1474 7.75545 31.1188 7.89564C31.0901 8.03583 31.1048 8.18114 31.1609 8.3132C31.2171 8.44526 31.312 8.55813 31.434 8.63755C31.5559 8.71695 31.6992 8.75933 31.8458 8.75933H33.6991C33.9939 8.75933 34.2769 8.87353 34.4853 9.07683C34.6939 9.28013 34.8111 9.55586 34.8111 9.84337C34.8111 10.1309 34.6939 10.4066 34.4853 10.6099C34.2769 10.8133 33.9939 10.9274 33.6991 10.9274H31.8458C31.6493 10.9274 31.4606 11.0035 31.3217 11.1391C31.1827 11.2746 31.1045 11.4584 31.1045 11.6501V12.035C30.2396 11.2777 29.1043 10.8815 27.9429 10.9316C26.7813 10.9819 25.6865 11.4743 24.8937 12.3034C24.576 11.4755 24.0068 10.762 23.2622 10.2579C22.5175 9.75374 21.6329 9.48307 20.7264 9.48202H20.0499C20.1267 9.27094 20.2685 9.08817 20.4559 8.95878C20.6435 8.82939 20.8673 8.75971 21.097 8.75933ZM31.0107 14.5408H25.2681C25.4322 13.9201 25.8034 13.3701 26.3232 12.9774C26.8428 12.5847 27.4819 12.3716 28.1394 12.3716C28.7969 12.3716 29.4359 12.5847 29.9556 12.9774C30.4754 13.3701 30.8466 13.9201 31.0107 14.5408ZM12.5722 4.42318C12.5722 3.65649 12.8846 2.92122 13.4406 2.3791C13.9967 1.83697 14.7509 1.53241 15.5374 1.53241C16.3237 1.53241 17.0779 1.83697 17.634 2.3791C18.1902 2.92122 18.5026 3.65649 18.5026 4.42318V9.60632C18.0693 9.7562 17.6942 10.0331 17.4288 10.399C17.1633 10.7649 17.0205 11.2019 17.02 11.6501C17.0191 12.7174 17.4239 13.7473 18.1561 14.5408H12.5722V4.42318ZM14.0548 15.9862H15.5374V21.7678H14.0548V15.9862ZM12.2652 17.4316C11.8664 17.4318 11.4699 17.4914 11.0896 17.6081V15.9862H12.5722V17.4592C12.4708 17.4415 12.3681 17.4322 12.2652 17.4316ZM12.5722 21.3445V21.7678H12.1379L12.5722 21.3445ZM14.0548 31.5297L15.5374 31.3491V36.6449L14.0548 35.1995V31.5297ZM11.1815 31.8799L12.5722 31.7104V35.1996L11.0896 36.645V31.8854C11.1203 31.8854 11.151 31.8835 11.1815 31.8799ZM12.1379 37.667L13.3135 36.521L14.489 37.667H12.1379ZM17.02 31.0377C17.2456 30.9054 17.4325 30.7184 17.5624 30.495C17.6923 30.2715 17.7607 30.0192 17.7613 29.7624C17.7613 29.7473 17.7613 29.7323 17.7605 29.7172H18.8732C19.1505 29.717 19.4241 29.6564 19.6742 29.5395C19.9241 29.4226 20.1441 29.2524 20.3177 29.0418C20.4914 28.831 20.6144 28.585 20.6776 28.3218C20.7408 28.0587 20.7426 27.785 20.683 27.521C21.1389 27.4412 21.5475 27.1981 21.8286 26.8393C22.1097 26.4805 22.2429 26.0322 22.2019 25.5824C22.1609 25.1327 21.9485 24.7143 21.6068 24.4096C21.2652 24.1049 20.8188 23.9358 20.3557 23.9358H19.9481C20.0028 23.6734 19.997 23.4023 19.9311 23.1422C19.8652 22.8822 19.7408 22.6396 19.567 22.4322C19.3933 22.2247 19.1743 22.0574 18.9262 21.9426C18.6779 21.8277 18.4067 21.768 18.1319 21.7678H17.02V15.9862H32.5871V31.165C31.9899 31.1884 31.4249 31.4358 31.0104 31.8558C30.596 32.2758 30.3641 32.8358 30.3632 33.4185V33.5426C30.3643 34.0305 30.5268 34.5051 30.8266 34.8961L32.5238 37.1011C32.565 37.1549 32.5873 37.22 32.5874 37.287V37.3039C32.5876 37.4 32.5486 37.4922 32.479 37.5603C32.4094 37.6284 32.315 37.6668 32.2165 37.667H17.02V31.0377Z" fill="black"/>
</svg>
