<svg width="22" height="24" viewBox="0 0 22 24" fill="none" xmlns="http://www.w3.org/2000/svg">
<g clip-path="url(#clip0_4_47)">
<path d="M11.4444 17H3.55618L8.60422 11.037L10.5767 12.83L12.5492 11.036L13.9062 12.639C14.1773 12.4694 14.4621 12.332 14.7562 12.229L13.2256 10.421L18.1958 5.9V12.62C18.4966 12.7967 18.7805 13.0113 19.0423 13.26V5.5C19.0414 5.1025 18.9073 4.72158 18.6694 4.44051C18.4315 4.15943 18.109 4.00106 17.7725 4H3.38094C3.04443 4.00106 2.72196 4.15943 2.48401 4.44051C2.24607 4.72158 2.11199 5.1025 2.1111 5.5V16.5C2.1111 16.8978 2.24489 17.2794 2.48303 17.5607C2.72117 17.842 3.04416 18 3.38094 18H11.4444C11.4317 17.835 11.4233 17.669 11.4233 17.5C11.4233 17.331 11.4317 17.165 11.4444 17ZM2.95766 16.293V5.901L7.92782 10.421L2.95766 16.293ZM17.7725 5C17.7801 5 17.786 5.005 17.7936 5.005L10.5767 11.57L3.35978 5.005C3.3674 5.005 3.37332 5 3.38094 5H17.7725ZM16.0794 13C15.0693 13.0013 14.101 13.4759 13.3869 14.3195C12.6727 15.1631 12.2709 16.3069 12.2698 17.5C12.2759 17.6675 12.29 17.8344 12.3122 18C12.4141 19.0971 12.8546 20.1114 13.5495 20.8493C14.2444 21.5871 15.145 21.9968 16.0794 22H16.5026V21H16.0794C15.3687 20.9977 14.6825 20.6932 14.1462 20.1424C13.6099 19.5915 13.2594 18.831 13.1587 18C13.1344 17.8348 13.1202 17.6677 13.1164 17.5C13.116 16.8109 13.2879 16.137 13.6106 15.5629C13.9333 14.9888 14.3923 14.5401 14.9301 14.273C15.4679 14.006 16.0604 13.9325 16.6334 14.0618C17.2064 14.1912 17.7343 14.5175 18.1509 15H17.3492V15.513C16.9849 15.1822 16.5388 15.002 16.0794 15C15.7324 14.9988 15.3906 15.0984 15.084 15.29C14.7773 15.4816 14.5152 15.7592 14.3207 16.0986C14.1263 16.4379 14.0054 16.8286 13.9688 17.236C13.9321 17.6435 13.9809 18.0554 14.1107 18.4354C14.2405 18.8155 14.4474 19.152 14.7132 19.4153C14.9789 19.6787 15.2955 19.8608 15.6348 19.9457C15.9742 20.0306 16.3261 20.0157 16.6594 19.9022C16.9927 19.7888 17.2974 19.5802 17.5464 19.295C17.6923 19.571 17.9102 19.7834 18.1674 19.9C18.4245 20.0166 18.7068 20.0311 18.9715 19.9413C19.2363 19.8514 19.469 19.6621 19.6345 19.4021C19.8 19.142 19.8893 18.8254 19.8889 18.5V17.5C19.8768 16.311 19.4716 15.1746 18.7597 14.3338C18.0479 13.493 17.0859 13.0143 16.0794 13ZM16.0794 19C15.8176 18.999 15.5625 18.9024 15.3491 18.7233C15.1357 18.5443 14.9744 18.2916 14.8874 18C14.8373 17.8399 14.8109 17.6707 14.8095 17.5C14.8095 17.1022 14.9433 16.7206 15.1814 16.4393C15.4196 16.158 15.7426 16 16.0794 16C16.4161 16 16.7391 16.158 16.9773 16.4393C17.2154 16.7206 17.3492 17.1022 17.3492 17.5C17.3478 17.6707 17.3214 17.8399 17.2713 18C17.1843 18.2916 17.023 18.5443 16.8096 18.7233C16.5962 18.9024 16.3411 18.999 16.0794 19ZM19.0423 18.5C19.0423 18.6326 18.9977 18.7598 18.9183 18.8536C18.839 18.9473 18.7313 19 18.619 19C18.5068 19 18.3991 18.9473 18.3197 18.8536C18.2404 18.7598 18.1958 18.6326 18.1958 18.5V15.053C18.7276 15.7145 19.0298 16.5878 19.0423 17.5V18.5Z" fill="black"/>
</g>
<defs>
<clipPath id="clip0_4_47">
<rect width="21.3333" height="24" fill="white" transform="translate(0.333328)"/>
</clipPath>
</defs>
</svg>
