<svg width="18" height="20" viewBox="0 0 18 20" fill="none" xmlns="http://www.w3.org/2000/svg">
<path d="M2.33333 3.75001V5.42215C2.33333 12.0956 7.14212 17.5055 13.0741 17.5055H14.5556C15.1692 17.5055 15.6667 16.9458 15.6667 16.2555V14.1179C15.6667 13.5799 15.3606 13.1022 14.9069 12.9321L12.549 12.0478C12.0736 11.8696 11.551 12.0713 11.2731 12.5403L10.7331 13.4515C10.4552 13.9206 9.93259 14.1223 9.45725 13.944L8.32732 13.5203C7.1686 13.0858 6.27958 12.0285 5.95821 10.7029L5.49372 8.78685C5.33856 8.14681 5.65487 7.48189 6.21431 7.2721L6.66065 7.10472C7.12761 6.92961 7.41193 6.39835 7.33101 5.85215L6.98914 3.54451C6.89984 2.94177 6.4363 2.50001 5.89314 2.50001H3.44444C2.83079 2.50001 2.33333 3.05965 2.33333 3.75001ZM1.59259 3.75001C1.59259 2.59941 2.42169 1.66667 3.44444 1.66667H5.89314C6.7984 1.66667 7.57097 2.40295 7.7198 3.40751L8.06167 5.71515C8.20251 6.66584 7.70764 7.59051 6.8949 7.89529L6.44856 8.06267C6.26208 8.1326 6.15664 8.35424 6.20836 8.56758L6.67285 10.4836C6.92905 11.5404 7.6378 12.3833 8.56156 12.7297L9.69149 13.1534C9.84994 13.2129 10.0241 13.1456 10.1168 12.9893L10.6568 12.0781C11.12 11.2964 11.991 10.9602 12.7832 11.2573L15.1412 12.1415C15.8973 12.4251 16.4074 13.2212 16.4074 14.1179V16.2555C16.4074 17.4061 15.5783 18.3388 14.5556 18.3388H13.0741C6.73302 18.3388 1.59259 12.5558 1.59259 5.42215V3.75001Z" fill="black"/>
</svg>
